<svg width="20" height="26" fill="none" xmlns="http://www.w3.org/2000/svg"><path d="M19.162 13.763H.838a.763.763 0 100 1.527H1.6v9.923c0 .422.342.763.764.763h15.27a.763.763 0 00.764-.763V15.29h.763a.763.763 0 100-1.527zm-3.817 8.397a.763.763 0 01-.764.763H5.42a.763.763 0 01-.764-.763v-4.58c0-.422.342-.763.764-.763h9.162c.422 0 .764.341.764.763v4.58zm-9.163-.764h7.636v-3.053H6.182v3.053zM5.42 7.656h2.909c-.222.965-.67 1.587-1.115 2.177-.506.669-1.03 1.361-1.03 2.403h7.635c0-1.026-.524-1.73-1.03-2.41-.445-.597-.89-1.225-1.114-2.17h2.907a.765.765 0 00.715-1.031L13.006.518a.764.764 0 00-.716-.495H7.71a.764.764 0 00-.716.495l-2.29 6.107a.764.764 0 00.715 1.032z" fill="url(#paint0_linear_1:335)"/><defs><linearGradient id="paint0_linear_1:335" x1="10" y1="25.977" x2="10" y2=".023" gradientUnits="userSpaceOnUse"><stop stop-color="#FFA68D"/><stop offset="1" stop-color="#FD3A84"/></linearGradient></defs></svg>