<?xml version="1.0" encoding="utf-8"?><svg viewBox="0 0 22 25" xmlns="http://www.w3.org/2000/svg" xmlns:xlink="http://www.w3.org/1999/xlink"><style>:root>svg{display:none}:root>svg:target{display:block}</style><svg fill="none" viewBox="0 0 14 10" id="arrow" xmlns="http://www.w3.org/2000/svg"><path d="M7.692 6.385v2.769L13.23 5 7.692.846v2.77H.77v2.769h6.923z" fill="#F0F0F0"/></svg><svg fill="none" viewBox="0 0 22 25" id="basket" xmlns="http://www.w3.org/2000/svg"><path d="M20.446 4.552H4.026L3.784 1.02C3.743.443 3.37 0 2.923 0H1.173C.695 0 .309.502.309 1.12c0 .619.386 1.12.863 1.12h.963l.992 14.354c.07 1.035.501 2.157 1.242 2.92C3.033 21.731 4.254 25 6.43 25c1.804 0 3.077-2.338 2.458-4.552h4.72C12.99 22.659 14.26 25 16.066 25c1.441 0 2.614-1.523 2.614-3.396s-1.173-3.396-2.614-3.396H6.434c-.655 0-1.226-.514-1.472-1.262l13.782-1.052c.377-.028.695-.371.787-.846l1.752-9.104c.136-.706-.276-1.392-.837-1.392zM6.428 22.76c-.49 0-.89-.519-.89-1.156 0-.637.4-1.156.89-1.156s.89.518.89 1.156c0 .637-.4 1.156-.89 1.156zm9.638 0c-.491 0-.89-.519-.89-1.156 0-.637.399-1.156.89-1.156.49 0 .89.518.89 1.156 0 .637-.4 1.156-.89 1.156zm1.945-9.054L4.73 14.72l-.548-7.928h15.16l-1.331 6.914z" fill="#fff"/></svg><svg fill="none" viewBox="0 0 21 22" id="search" xmlns="http://www.w3.org/2000/svg"><path d="M20.68 20.038l-5.176-5.445a8.915 8.915 0 002.06-5.71C17.564 3.984 13.624 0 8.782 0 3.94 0 0 3.985 0 8.882c0 4.898 3.94 8.883 8.782 8.883a8.62 8.62 0 005.031-1.607l5.217 5.487a1.133 1.133 0 001.62.032 1.17 1.17 0 00.03-1.639zM8.783 2.319c3.58 0 6.491 2.944 6.491 6.564s-2.912 6.566-6.49 6.566c-3.58 0-6.492-2.945-6.492-6.566 0-3.62 2.912-6.565 6.491-6.565z" fill="#fff"/></svg></svg>